<svg id="visual" viewBox="0 0 960 320" width="960" height="320" xmlns="http://www.w3.org/2000/svg" xmlns:xlink="http://www.w3.org/1999/xlink" version="1.1"><rect x="0" y="0" width="960" height="320" fill="#bac"></rect><path d="M0 91L22.8 94C45.7 97 91.3 103 137 103.5C182.7 104 228.3 99 274 96C319.7 93 365.3 92 411.2 94.8C457 97.7 503 104.3 548.8 111C594.7 117.7 640.3 124.3 686 123.7C731.7 123 777.3 115 823 113C868.7 111 914.3 115 937.2 117L960 119L960 0L937.2 0C914.3 0 868.7 0 823 0C777.3 0 731.7 0 686 0C640.3 0 594.7 0 548.8 0C503 0 457 0 411.2 0C365.3 0 319.7 0 274 0C228.3 0 182.7 0 137 0C91.3 0 45.7 0 22.8 0L0 0Z" fill="#bbaacc"></path><path d="M0 80L22.8 77.8C45.7 75.7 91.3 71.3 137 68.5C182.7 65.7 228.3 64.3 274 69C319.7 73.7 365.3 84.3 411.2 91.7C457 99 503 103 548.8 103.2C594.7 103.3 640.3 99.7 686 93C731.7 86.3 777.3 76.7 823 74.2C868.7 71.7 914.3 76.3 937.2 78.7L960 81L960 0L937.2 0C914.3 0 868.7 0 823 0C777.3 0 731.7 0 686 0C640.3 0 594.7 0 548.8 0C503 0 457 0 411.2 0C365.3 0 319.7 0 274 0C228.3 0 182.7 0 137 0C91.3 0 45.7 0 22.8 0L0 0Z" fill="#bb90c0"></path><path d="M0 76L22.8 76.3C45.7 76.7 91.3 77.3 137 75.8C182.7 74.3 228.3 70.7 274 69.3C319.7 68 365.3 69 411.2 71.2C457 73.3 503 76.7 548.8 75C594.7 73.3 640.3 66.7 686 63C731.7 59.3 777.3 58.7 823 60.3C868.7 62 914.3 66 937.2 68L960 70L960 0L937.2 0C914.3 0 868.7 0 823 0C777.3 0 731.7 0 686 0C640.3 0 594.7 0 548.8 0C503 0 457 0 411.2 0C365.3 0 319.7 0 274 0C228.3 0 182.7 0 137 0C91.3 0 45.7 0 22.8 0L0 0Z" fill="#c072ab"></path><path d="M0 56L22.8 55.3C45.7 54.7 91.3 53.3 137 49.8C182.7 46.3 228.3 40.7 274 37.3C319.7 34 365.3 33 411.2 33.8C457 34.7 503 37.3 548.8 37.5C594.7 37.7 640.3 35.3 686 38.3C731.7 41.3 777.3 49.7 823 53.7C868.7 57.7 914.3 57.3 937.2 57.2L960 57L960 0L937.2 0C914.3 0 868.7 0 823 0C777.3 0 731.7 0 686 0C640.3 0 594.7 0 548.8 0C503 0 457 0 411.2 0C365.3 0 319.7 0 274 0C228.3 0 182.7 0 137 0C91.3 0 45.7 0 22.8 0L0 0Z" fill="#c5508d"></path><path d="M0 34L22.8 32.7C45.7 31.3 91.3 28.7 137 26.7C182.7 24.7 228.3 23.3 274 23.2C319.7 23 365.3 24 411.2 24.5C457 25 503 25 548.8 26.5C594.7 28 640.3 31 686 29.7C731.7 28.3 777.3 22.7 823 21.5C868.7 20.3 914.3 23.7 937.2 25.3L960 27L960 0L937.2 0C914.3 0 868.7 0 823 0C777.3 0 731.7 0 686 0C640.3 0 594.7 0 548.8 0C503 0 457 0 411.2 0C365.3 0 319.7 0 274 0C228.3 0 182.7 0 137 0C91.3 0 45.7 0 22.8 0L0 0Z" fill="#c62368"></path></svg>