<svg id="visual" viewBox="0 0 960 320" width="960" height="320" xmlns="http://www.w3.org/2000/svg" xmlns:xlink="http://www.w3.org/1999/xlink" version="1.1"><rect x="0" y="0" width="960" height="320" fill="#0bdd69"></rect><path d="M0 228L22.8 228.7C45.7 229.3 91.3 230.7 137 224.2C182.7 217.7 228.3 203.3 274 202.5C319.7 201.7 365.3 214.3 411.2 214.7C457 215 503 203 548.8 203.2C594.7 203.3 640.3 215.7 686 217.3C731.7 219 777.3 210 823 208.7C868.7 207.3 914.3 213.7 937.2 216.8L960 220L960 321L937.2 321C914.3 321 868.7 321 823 321C777.3 321 731.7 321 686 321C640.3 321 594.7 321 548.8 321C503 321 457 321 411.2 321C365.3 321 319.7 321 274 321C228.3 321 182.7 321 137 321C91.3 321 45.7 321 22.8 321L0 321Z" fill="#27d776"></path><path d="M0 252L22.8 247.5C45.7 243 91.3 234 137 229.8C182.7 225.7 228.3 226.3 274 225C319.7 223.7 365.3 220.3 411.2 220.7C457 221 503 225 548.8 223.7C594.7 222.3 640.3 215.7 686 215.5C731.7 215.3 777.3 221.7 823 222C868.7 222.3 914.3 216.7 937.2 213.8L960 211L960 321L937.2 321C914.3 321 868.7 321 823 321C777.3 321 731.7 321 686 321C640.3 321 594.7 321 548.8 321C503 321 457 321 411.2 321C365.3 321 319.7 321 274 321C228.3 321 182.7 321 137 321C91.3 321 45.7 321 22.8 321L0 321Z" fill="#00d39e"></path><path d="M0 238L22.8 241.7C45.7 245.3 91.3 252.7 137 252.8C182.7 253 228.3 246 274 245.5C319.7 245 365.3 251 411.2 252C457 253 503 249 548.8 245.8C594.7 242.7 640.3 240.3 686 242.2C731.7 244 777.3 250 823 251.8C868.7 253.7 914.3 251.3 937.2 250.2L960 249L960 321L937.2 321C914.3 321 868.7 321 823 321C777.3 321 731.7 321 686 321C640.3 321 594.7 321 548.8 321C503 321 457 321 411.2 321C365.3 321 319.7 321 274 321C228.3 321 182.7 321 137 321C91.3 321 45.7 321 22.8 321L0 321Z" fill="#00ccb9"></path><path d="M0 261L22.8 263.7C45.7 266.3 91.3 271.7 137 271.8C182.7 272 228.3 267 274 267.2C319.7 267.3 365.3 272.7 411.2 276.2C457 279.7 503 281.3 548.8 281.2C594.7 281 640.3 279 686 278.2C731.7 277.3 777.3 277.7 823 278.2C868.7 278.7 914.3 279.3 937.2 279.7L960 280L960 321L937.2 321C914.3 321 868.7 321 823 321C777.3 321 731.7 321 686 321C640.3 321 594.7 321 548.8 321C503 321 457 321 411.2 321C365.3 321 319.7 321 274 321C228.3 321 182.7 321 137 321C91.3 321 45.7 321 22.8 321L0 321Z" fill="#00c4c9"></path><path d="M0 304L22.8 300.2C45.7 296.3 91.3 288.7 137 288.8C182.7 289 228.3 297 274 299.7C319.7 302.3 365.3 299.7 411.2 298C457 296.3 503 295.7 548.8 292.8C594.7 290 640.3 285 686 284.2C731.7 283.3 777.3 286.7 823 286.7C868.7 286.7 914.3 283.3 937.2 281.7L960 280L960 321L937.2 321C914.3 321 868.7 321 823 321C777.3 321 731.7 321 686 321C640.3 321 594.7 321 548.8 321C503 321 457 321 411.2 321C365.3 321 319.7 321 274 321C228.3 321 182.7 321 137 321C91.3 321 45.7 321 22.8 321L0 321Z" fill="#02bad3"></path></svg>